<?xml version="1.0" encoding="UTF-8" standalone="no"?>
<!-- Created with Inkscape (http://www.inkscape.org/) -->

<svg
   xmlns:dc="http://purl.org/dc/elements/1.1/"
   xmlns:cc="http://creativecommons.org/ns#"
   xmlns:rdf="http://www.w3.org/1999/02/22-rdf-syntax-ns#"
   xmlns:svg="http://www.w3.org/2000/svg"
   xmlns="http://www.w3.org/2000/svg"
   xmlns:sodipodi="http://sodipodi.sourceforge.net/DTD/sodipodi-0.dtd"
   xmlns:inkscape="http://www.inkscape.org/namespaces/inkscape"
   width="100"
   height="40"
   viewBox="0 0 100 40"
   version="1.1"
   id="svg8"
   inkscape:version="0.92.1 r15371"
   sodipodi:docname="dibujo.svg">
  <defs
     id="defs2" />
  <sodipodi:namedview
     id="base"
     pagecolor="#ffffff"
     bordercolor="#666666"
     borderopacity="1.0"
     inkscape:pageopacity="0.0"
     inkscape:pageshadow="2"
     inkscape:zoom="1.979899"
     inkscape:cx="102.24901"
     inkscape:cy="32.653269"
     inkscape:document-units="mm"
     inkscape:current-layer="layer1"
     showgrid="false"
     inkscape:window-width="1366"
     inkscape:window-height="705"
     inkscape:window-x="-8"
     inkscape:window-y="-8"
     inkscape:window-maximized="1" />
  <metadata
     id="metadata5">
    <rdf:RDF>
      <cc:Work
         rdf:about="">
        <dc:format>image/svg+xml</dc:format>
        <dc:type
           rdf:resource="http://purl.org/dc/dcmitype/StillImage" />
        <dc:title></dc:title>
      </cc:Work>
    </rdf:RDF>
  </metadata>
  <g
     inkscape:label="Capa 1"
     inkscape:groupmode="layer"
     id="layer1"
     transform="translate(0,-266)">
    <g
       id="layer1-7"
       inkscape:label="Capa 1"
       transform="matrix(0.57030332,0,0,0.57030332,-1.6447284,265.923)">
      <flowRoot
         style="font-style:normal;font-weight:normal;font-size:40px;line-height:1.25;font-family:sans-serif;letter-spacing:0px;word-spacing:0px;fill:#000000;fill-opacity:1;stroke:none"
         id="flowRoot4489"
         xml:space="preserve"><flowRegion
           id="flowRegion4491"><rect
             y="362.88498"
             x="74.751289"
             height="84.852814"
             width="90.408653"
             id="rect4493" /></flowRegion><flowPara
           id="flowPara4495" /></flowRoot>      <flowRoot
         style="font-style:normal;font-weight:normal;font-size:40px;line-height:1.25;font-family:sans-serif;letter-spacing:0px;word-spacing:0px;fill:#000000;fill-opacity:1;stroke:none"
         id="flowRoot4497"
         xml:space="preserve"><flowRegion
           id="flowRegion4499"><rect
             y="842.51971"
             x="242.85715"
             height="285.71429"
             width="551.42859"
             id="rect4501" /></flowRegion><flowPara
           id="flowPara4503" /></flowRoot>      <flowRoot
         style="font-style:normal;font-weight:normal;font-size:40px;line-height:1.25;font-family:sans-serif;letter-spacing:0px;word-spacing:0px;fill:#000000;fill-opacity:1;stroke:none"
         id="flowRoot4505"
         xml:space="preserve"><flowRegion
           id="flowRegion4507"><rect
             y="13.948256"
             x="140"
             height="314.28571"
             width="5.7142859"
             id="rect4509" /></flowRegion><flowPara
           id="flowPara4511" /></flowRoot>      <g
         transform="translate(-36.381938,-12.067445)"
         id="g4726">
        <path
           inkscape:connector-curvature="0"
           id="path4730"
           d="m 75.597783,39.000383 c 0,-14.78111 0.210257,-22.770899 0.599234,-22.770899 0.388977,0 0.599234,7.989789 0.599234,22.770899 0,14.781111 -0.210257,22.7709 -0.599234,22.7709 -0.388977,0 -0.599234,-7.989789 -0.599234,-22.7709 z M 47.421468,58.924921 c -4.335926,-2.216661 -6.668006,-5.234769 -7.040524,-9.111634 -0.315102,-3.279327 0.430594,-4.820561 2.332332,-4.820561 0.991172,0 1.125095,0.488747 1.125095,4.106022 0,5.004902 1.410853,7.523549 5.321676,9.500224 3.084216,1.558878 3.583743,1.973843 2.376075,1.973843 -0.4902,0 -2.341794,-0.741552 -4.114654,-1.647894 z M 119.61372,38.101532 c 1.8e-4,-12.523995 0.0798,-17.562284 0.17694,-11.196198 0.0971,6.366085 0.097,16.61299 -3.3e-4,22.770899 -0.0973,6.15791 -0.17678,0.949294 -0.17661,-11.574701 z M 59.718077,59.141336 c 7.053904,-3.081529 8.802756,-10.299915 3.694889,-15.250655 -1.239531,-1.201401 -4.535947,-2.998139 -8.525111,-4.646679 -3.577266,-1.478322 -7.420611,-3.3869 -8.540767,-4.241284 -3.452168,-2.633097 -4.737765,-7.851316 -2.838945,-11.523229 1.090953,-2.109672 4.850543,-5.452303 6.13242,-5.452303 0.580926,0 0.16267,0.54178 -1.048231,1.357806 -4.213842,2.839708 -4.475251,9.036959 -0.500574,11.867179 1.004507,0.715272 4.753246,2.584035 8.330531,4.152807 8.073815,3.540667 9.757389,4.726537 11.334018,7.98342 1.645984,3.400149 1.600742,7.239085 -0.121307,10.293224 -1.487616,2.638361 -6.421456,6.305367 -8.434071,6.268504 -1.060061,-0.01942 -0.971016,-0.158679 0.517148,-0.80879 z m 75.122513,-0.842128 c -6.09022,-3.172371 -9.50637,-10.453048 -9.50637,-20.260454 0,-6.663551 1.61723,-11.766235 4.91744,-15.515463 2.5059,-2.846853 6.26078,-5.069018 8.56533,-5.069018 0.75104,0 0.28779,0.413619 -1.24086,1.107917 -3.20807,1.457075 -6.04748,4.972245 -7.31242,9.052744 -1.4847,4.789371 -1.43368,17.060403 0.0902,21.703223 1.37064,4.175828 4.54584,8.026637 7.82041,9.484392 1.75969,0.783372 2.08337,1.098181 1.16048,1.128704 -0.70391,0.02328 -2.72633,-0.71114 -4.49425,-1.632045 z m 11.14936,0.71898 c 5.1016,-1.867609 7.75469,-6.826482 7.38955,-13.811721 -0.16264,-3.111157 -0.33208,-3.502192 -1.67898,-3.874651 -0.84411,-0.233424 0.72542,-0.401148 3.59541,-0.384214 2.80142,0.01653 4.35194,0.142389 3.4456,0.279688 l -1.6479,0.249636 -0.10801,9.098518 c -0.0594,5.004186 -0.20901,7.817657 -0.33245,6.252157 -0.12344,-1.565499 -0.43543,-2.846362 -0.6933,-2.846362 -0.25788,0 -1.54246,1.021281 -2.85462,2.269512 -2.27379,2.163006 -5.93008,3.771691 -8.36544,3.680607 -0.62092,-0.02322 -0.0584,-0.43415 1.25014,-0.91317 z M 92.076723,57.883866 c -2.519169,-1.18319 -3.552752,-2.113126 -5.015398,-4.512458 -2.092273,-3.432168 -1.478347,-7.180214 1.176111,-7.180214 1.305887,0 1.741967,1.200856 1.741967,4.796907 0,2.246906 0.349863,3.316974 1.551352,4.744864 0.853249,1.014024 1.915955,1.843679 2.361576,1.843679 0.44562,0 0.976871,0.269655 1.180563,0.599234 0.519842,0.841121 -0.872509,0.70542 -2.996171,-0.292012 z m 8.988517,-0.223665 c 4.88492,-3.017395 5.20195,-4.577951 4.97767,-24.502748 l -0.1838,-16.329529 1.94751,3.97e-4 1.94751,3.97e-4 -0.004,16.029515 c -0.002,8.816233 -0.26816,16.98274 -0.59183,18.147793 -0.66766,2.403296 -4.26477,6.185822 -6.78446,7.134175 -2.626197,0.988439 -3.29161,0.744485 -1.30927,-0.48 z m 52.15968,-28.397373 c -0.12963,-0.411974 -0.35611,-2.215423 -0.50329,-4.007664 -0.23104,-2.813527 -0.5634,-3.529706 -2.43325,-5.243299 -2.38859,-2.188982 -2.35728,-2.415318 0.15448,-1.116438 3.9895,2.063048 6.87073,7.267615 5.47111,9.882829 -0.73077,1.36547 -2.32166,1.652151 -2.68905,0.484572 z M 64.632538,29.033862 c -0.231113,-0.231113 -0.420205,-1.893941 -0.420205,-3.695174 0,-2.966037 -0.197675,-3.461399 -2.095549,-5.251326 -1.152553,-1.086996 -2.568244,-2.093663 -3.14598,-2.237037 -0.577737,-0.143374 -0.272394,-0.161678 0.67854,-0.04068 4.453223,0.566656 9.006641,6.253458 7.78608,9.724101 -0.544006,1.546877 -1.984933,2.318064 -2.802886,1.500111 z"
           style="fill:#8a8a8a;stroke-width:0.59923422" />
        <path
           inkscape:connector-curvature="0"
           id="path4728"
           d="m 44.232681,56.380933 c -2.578535,-2.263983 -3.518559,-4.517183 -3.279163,-7.860022 0.155195,-2.167078 0.398998,-2.629334 1.386767,-2.629334 0.998007,0 1.174041,0.350808 1.052425,2.09732 -0.228559,3.282314 0.353433,5.689194 1.941534,8.029391 1.782278,2.626335 1.559985,2.699516 -1.101563,0.362645 z m 88.958579,0.346286 c -5.09527,-3.759168 -7.43116,-9.500943 -7.45549,-18.32607 -0.0143,-5.172546 0.22789,-6.918918 1.36103,-9.815952 1.39601,-3.569109 4.58993,-7.689784 6.87463,-8.869406 1.0189,-0.526073 0.95127,-0.326283 -0.36561,1.080091 -6.75532,7.214354 -6.79977,27.579008 -0.0764,35.020932 2.4662,2.72978 2.39343,2.925686 -0.33812,0.910405 z m 17.8184,-0.635848 c 2.09921,-2.39087 2.7608,-4.927726 2.77685,-10.647741 0.0106,-3.789813 0.0959,-4.043445 1.35961,-4.044831 1.30843,-0.0014 1.34828,0.175634 1.34828,5.990863 0,3.295789 -0.20224,5.94152 -0.44943,5.879404 -0.24718,-0.06212 -1.60681,1.016506 -3.0214,2.396937 -3.10792,3.032881 -4.5755,3.342854 -2.01391,0.425368 z M 88.965181,54.922414 c -2.429025,-2.429028 -2.638422,-2.873903 -2.467898,-5.243299 0.153111,-2.12747 0.400007,-2.58907 1.384801,-2.58907 1.022047,0 1.243081,0.500509 1.501525,3.400049 0.198802,2.230373 0.771879,4.034159 1.665835,5.243299 1.954696,2.643869 0.998552,2.271836 -2.084263,-0.810979 z m -23.57282,0.257293 C 66.87517,52.61467 66.97026,48.631134 65.616766,45.778856 64.356558,43.123165 61.788841,41.436964 54.473198,38.460958 45.147902,34.667425 43.239137,32.733509 43.239137,27.078873 c 0,-2.373551 0.317338,-3.340271 1.534246,-4.673823 1.21661,-1.333227 1.4027,-1.410331 0.898851,-0.372427 -0.996522,2.052785 -0.742654,5.698668 0.543709,7.808396 1.231564,2.019856 3.833017,3.542073 11.46139,6.706532 5.133781,2.129634 8.044026,4.080833 9.580825,6.423548 2.424719,3.69627 1.925638,8.580237 -1.247868,12.211534 l -1.830357,2.094394 z m 38.992059,0.09651 c 2.04436,-2.765137 2.34421,-5.576319 2.35924,-22.118365 0.0139,-15.325643 0.0451,-15.729898 1.21277,-15.729898 1.16948,0 1.19847,0.39949 1.19847,16.518335 0,11.013462 -0.22367,16.954531 -0.67114,17.827218 -0.8287,1.616168 -4.17759,5.203905 -4.85746,5.203905 -0.27479,0 0.0664,-0.765538 0.75812,-1.701195 z m 49.05309,-26.568683 c -0.0334,-0.43614 -0.0147,-1.646593 0.0415,-2.689896 0.0563,-1.043304 -0.34851,-2.796064 -0.89945,-3.895023 l -1.00168,-1.998107 1.95389,1.904109 c 1.57644,1.536272 1.96451,2.4009 2.00882,4.475755 0.0426,1.995959 -0.17982,2.61916 -0.99373,2.783894 -0.57677,0.116737 -1.07598,-0.144593 -1.10938,-0.580732 z m -88.676201,0 c -0.02764,-0.106561 -0.09506,-1.716076 -0.149809,-3.5767 -0.07159,-2.43295 -0.436105,-3.760936 -1.298018,-4.728949 l -1.198469,-1.345996 1.238806,0.759895 c 3.404929,2.088618 5.179457,8.38047 2.506408,8.886843 -0.576763,0.109259 -1.071276,0.111467 -1.098918,0.0049 z"
           style="fill:#626262;stroke-width:0.59923422" />
      </g>
    </g>
  </g>
</svg>
